PathFileType	4	(X/Y/Z)	C:\Users\°ÂÌØÂü\Desktop\20210112\bx_n_0_901-Unnamed.trc
DataRate	CameraRate	NumFrames	NumMarkers	Units	OrigDataRate	OrigDataStartFrame	OrigNumFrames
50.00	50.00	       7	0	mm	50.00	93	       370
Frame#	Time	
		

93	1.840	-658.98138	-79.14201	1534.45386	-569.02075	107.30449	1350.21021	-586.37463	-7.37326	1050.54211	-590.24170	239.33868	1061.83740	-675.04718	284.90268	871.87280	-581.27911	-7.52217	800.54016	-581.89972	218.84077	790.52020	-684.78479	270.73370	742.37384	-721.67474	253.74785	641.26147	-691.42505	73.86191	571.21710				-664.23065	15.74969	518.30658	-721.78687	248.33012	575.72980	-670.89624	203.74898	533.28827	-761.29077	259.72290	501.95236	-719.59302	70.84173	216.42990	-648.22284	-66.51711	163.11191	-714.72595	150.39771	217.55336	-764.79529	227.75597	205.47127	-605.84784	-71.17064	159.12471	-882.55920	296.25497	144.75124	-674.46497	54.61630	158.01923	-600.16351	28.53316	166.63782	-548.15765	-24.79501	164.37067	-517.68481	-72.98265	143.36121	-589.29987	207.43811	174.23320	-652.28107	291.55310	156.97148	-615.38306	297.53592	158.75775	-552.77252	243.20740	165.88171	-528.22528	304.04181	146.51495	-624.90955	112.29762	1851.05298	-795.72070	180.32433	184.77666	-678.22418	285.71527	1532.00110	-793.53577	39.18593	175.05557	-789.51862	96.01111	1063.56421	-755.38458	-46.32594	488.42557	-758.19147	-18.90793	207.15828	-876.01019	-78.97449	141.37619				-677.41339	-64.25069	754.76453	-702.98163	-36.25444	613.56702	-711.17114	-33.77816	567.55713	-675.31567	165.73927	157.84467	-656.82489	-73.71216	871.08673	
94	1.860	-656.89063	-79.14099	1534.59204	-567.72247	107.58347	1349.86389	-586.77313	-7.33911	1050.36267	-590.24170	239.33868	1061.83740	-675.53375	284.61636	871.83453	-581.76501	-6.99195	800.68359	-582.14142	219.08485	790.36115	-685.06720	270.72766	742.44080	-721.92535	253.97424	641.12512	-691.50885	73.93085	571.10504	-689.56476	143.04646	573.94965	-664.48285	15.89020	518.25641	-721.86975	248.33176	575.84143	-671.12567	203.84705	533.43494	-761.44446	259.84390	501.82516	-719.71631	70.92268	216.57156	-648.14844	-66.62303	163.14931	-714.77557	150.42043	217.23256	-764.73511	227.69835	205.42595	-606.00439	-71.18616	158.93561	-882.50012	295.98505	144.57483	-674.57745	54.58491	158.10361	-600.51953	28.67174	166.66217	-548.40161	-25.05577	164.77509	-517.67078	-73.01729	143.40648	-589.34424	207.40147	174.07272	-652.50684	291.78604	157.00102	-615.36548	297.44720	158.63429	-552.72565	243.08517	165.94075	-528.13885	304.07614	146.58961	-620.56464	112.32824	1850.65894	-795.46997	180.44043	184.68651	-675.86499	285.80151	1532.24890	-793.48523	39.07259	174.96638	-789.77173	95.93344	1063.56018	-755.53455	-46.59569	488.48270	-758.34546	-18.92316	206.91154	-876.07831	-78.80435	141.53267				-678.27277	-64.03278	754.63580	-703.16553	-36.12646	613.42719	-711.43414	-33.68322	567.52136	-675.48584	165.93568	157.72632	-657.23706	-73.59039	871.17108	
95	1.880	-654.28046	-79.09732	1534.56323	-566.37823	107.12661	1349.53564	-587.08716	-6.91020	1049.97107	-590.80182	239.57706	1061.66418	-675.83307	284.88840	872.13654	-582.06610	-7.40768	800.67688	-582.48267	219.36220	790.41315	-685.47565	270.65942	742.22656	-722.22070	254.14552	641.26282	-691.78949	74.04301	570.83893	-690.86896	143.43004	573.71857	-664.86560	15.82484	518.13855	-722.14551	248.26953	575.67102	-672.01776	204.01317	533.23071	-761.75037	260.15720	501.85965	-719.71014	70.94675	216.30974	-648.19922	-66.39980	163.07935	-714.72595	150.39771	217.55336	-764.79028	227.94102	205.60045	-605.93683	-71.36553	159.09207	-882.41571	295.92346	144.56161	-674.40112	54.29406	158.18411	-600.38403	28.65636	166.67899	-548.12891	-24.87130	164.37262	-517.70892	-72.91471	143.28874	-589.27722	207.54581	174.33124	-652.55023	291.47977	156.96837	-615.36548	297.44720	158.63429	-552.72565	243.08517	165.94075	-528.17377	303.96555	146.50659	-615.83771	112.24499	1850.36035	-795.57605	180.34274	184.76349	-673.35712	285.54172	1532.18835	-793.56982	39.00849	175.00191	-790.18604	96.08388	1063.97266	-755.62427	-46.54686	488.43893	-758.28503	-18.91245	207.06143	-876.07831	-78.80435	141.53267				-678.61639	-64.06616	754.83502	-703.60516	-35.83284	613.03522	-711.90558	-33.59781	567.56592	-675.49530	166.08771	157.27800	-657.86835	-73.15068	870.73499	
96	1.900	-651.44275	-79.36427	1534.49316	-565.08893	107.16629	1348.85229	-587.75049	-6.59016	1049.58948	-591.21680	239.50372	1061.42651	-676.23810	285.22086	872.58673	-582.96600	-7.57888	800.35114	-582.72339	219.58194	790.57184	-685.97552	270.96359	742.59375	-722.94318	254.40634	641.27625	-692.20514	74.02496	571.14606	-690.59137	143.00241	574.03302	-665.14447	15.83517	518.21057	-722.30243	248.02380	575.56445	-672.44232	204.02831	533.01813	-761.87128	260.05252	501.83182	-719.83344	71.02769	216.45140	-648.18036	-66.50946	163.18979	-714.84766	150.43454	217.41144	-764.79529	227.75597	205.47127	-605.93683	-71.36553	159.09207	-882.70337	295.85779	144.47069	-674.41345	54.49027	158.10818	-600.45428	28.70275	166.58073	-548.34613	-24.80839	164.38324	-517.68481	-72.98265	143.36121	-589.19891	207.47742	174.28384	-652.49530	291.57834	157.13094	-615.38306	297.53592	158.75775	-552.69678	243.06592	166.16579	-528.17377	303.96555	146.50659	-610.95349	112.54822	1850.17322	-795.52710	180.28206	184.64214	-670.59253	285.53372	1532.43066	-793.48523	39.07259	174.96638	-790.69635	96.26450	1064.39648	-756.07776	-46.59564	488.13849	-758.28503	-18.91245	207.06143	-875.93073	-78.79627	141.25227				-679.02783	-63.97164	754.90417	-704.03400	-36.05801	613.33490	-712.09113	-33.58109	567.84515	-675.63470	165.99756	157.55775	-658.70306	-73.28250	870.76471	
97	1.920	-648.98083	-79.23551	1534.45667	-563.54956	107.34069	1347.92773	-588.31689	-7.09932	1050.62756	-591.74084	239.25969	1061.15259	-677.25946	285.45471	872.10443	-583.33539	-7.69904	800.53149	-583.46155	219.44740	790.52802	-686.25903	270.94360	742.44818	-723.67889	254.19617	641.08020	-692.87756	74.30460	571.47003	-691.00940	143.43703	573.91589	-665.38153	15.85316	518.40149	-722.48730	247.86015	575.22241	-672.66058	204.04808	533.28094	-762.13763	260.09061	501.80325	-719.71631	70.92268	216.57156	-648.07495	-66.64404	163.09570	-714.72601	150.55887	217.54956	-764.79529	227.75597	205.47127	-605.93683	-71.36553	159.09207	-882.52942	296.33389	144.80528	-674.46497	54.61630	158.01923	-600.46625	28.78630	166.56180	-548.11511	-24.63011	164.39101	-517.76727	-72.60536	142.94814	-589.34424	207.40147	174.07272	-652.44977	291.65576	157.08511	-615.36133	297.38931	158.66498	-552.81244	243.09892	165.85231	-528.14569	304.17987	146.55627	-605.42273	112.85532	1849.60022	-795.52710	180.28206	184.64214	-667.53894	285.41504	1532.57959	-793.53912	39.12915	174.99847	-790.92493	96.10066	1064.79944	-756.28162	-46.62012	488.38940	-758.35327	-18.86094	206.94795	-875.87347	-78.77656	141.15236				-679.86554	-63.76463	754.68103	-704.39911	-35.84578	613.39819	-712.59436	-33.71709	568.04730	-675.51843	165.94664	158.07256	-659.60187	-73.48257	870.87720	
98	1.940	-646.23572	-79.57365	1534.48254	-562.06531	107.26242	1347.33813	-588.91370	-7.08362	1050.51489	-592.17114	239.08691	1060.92468	-678.04852	285.24112	872.15802	-584.23816	-7.63419	800.55811	-584.13763	219.77208	790.36206	-687.20502	271.12173	742.17480	-723.88757	254.24681	641.05646	-693.79547	74.09555	571.35828	-691.53516	143.51674	574.11609	-665.70923	15.53606	518.40936	-723.12079	248.02881	575.16156	-672.81415	203.92052	533.29340	-762.54895	260.22314	501.68240	-719.72516	70.76891	216.29353	-648.17285	-66.56852	163.17407	-714.82214	150.54341	217.41267	-764.84833	227.71193	205.41513	-606.00085	-71.37160	159.03293	-882.45801	295.98141	144.52785	-674.31158	54.43291	158.01283	-600.24677	28.66186	166.61412	-548.04926	-24.77271	164.26361	-517.76990	-72.61266	142.96074	-589.36945	207.46910	174.16641	-652.47943	291.72012	156.87064	-615.30756	297.47305	158.69130	-552.59125	243.20985	166.10728	-528.23462	304.18677	146.20686	-599.98267	112.42103	1849.05664	-795.54498	180.35458	184.55096	-664.43158	285.65939	1532.75378	-793.49359	39.06528	175.00980	-791.49164	96.07320	1065.19299	-756.57629	-46.67769	488.37738	-758.27722	-18.97467	207.02502	-875.85034	-78.68372	141.27127				-680.66724	-64.01499	755.16913	-704.94604	-35.98845	613.67188	-712.98627	-33.68044	567.97845	-675.47675	165.66295	157.93024	-660.58881	-73.36377	871.04401	
99	1.960	-642.66376	-79.13552	1534.41687	-560.46741	107.06699	1346.64343	-589.61182	-7.17720	1050.60876	-592.67438	239.21693	1061.27698	-678.75684	285.50778	872.80872	-584.93384	-7.67932	800.57312	-584.76813	219.76936	790.31580	-688.47736	271.19766	742.43365	-724.50134	254.54390	641.07855	-694.36737	73.98804	571.36694	-691.85486	143.44414	574.09418	-666.11243	15.53112	518.58783	-724.00281	248.02200	575.32465	-672.89093	204.10081	533.34949	-763.20270	260.34244	501.52469	-719.84851	70.84987	216.43520	-648.20850	-66.51569	163.12494	-714.84479	150.51718	217.46118	-765.00208	227.76877	205.45361	-606.00952	-71.39855	159.06262	-882.68860	296.03073	144.51665	-674.40112	54.29406	158.18411	-600.46826	28.58055	166.55324	-547.98688	-24.59182	164.27034	-517.72974	-72.87957	143.06046	-589.29987	207.43811	174.23320	-652.52100	291.51776	156.83461	-615.29803	297.47443	158.68396	-552.72565	243.08517	165.94075	-528.02820	304.06970	146.38199	-594.23260	112.26398	1848.43616	-795.60956	180.28505	184.59212	-660.85675	285.55576	1532.88696	-792.92566	38.73704	174.63406	-791.95410	96.22138	1065.59558	-756.71478	-46.46068	488.24536	-758.46832	-18.93857	207.00690	-875.95648	-78.79716	141.44162				-681.57684	-63.97949	754.95844	-705.50183	-35.99884	613.86853	-713.47693	-33.59905	567.99829	-675.60175	166.10912	157.70670	-661.24542	-73.54518	871.25604	
